<?xml version="1.0" encoding="utf-8"?>
<!-- Generator: Adobe Illustrator 20.0.0, SVG Export Plug-In . SVG Version: 6.00 Build 0)  -->
<svg version="1.1" id="Layer_1" xmlns="http://www.w3.org/2000/svg" xmlns:xlink="http://www.w3.org/1999/xlink" x="0px" y="0px"
	 viewBox="0 0 24 24" style="enable-background:new 0 0 24 24;" xml:space="preserve">
<style type="text/css">
	.st0{fill:#FFFFFF;}
</style>
<path class="st0" d="M19,11.5v4.4l-6,3.4v-6.7l2.4-1.4c-0.7-0.3-1.3-0.7-1.9-1.2L12,10.9L6,7.5l6-3.3l0,0C12.2,3.6,12.6,3,13,2.4
	l-0.4-0.2C12.4,2.1,12.2,2,12,2s-0.4,0.1-0.6,0.2L3.5,6.6C3.2,6.8,3,7.1,3,7.5v9c0,0.4,0.2,0.7,0.5,0.9l7.9,4.4
	c0.2,0.1,0.4,0.2,0.6,0.2s0.4-0.1,0.6-0.2l7.9-4.4c0.3-0.2,0.5-0.5,0.5-0.9v-6C20.4,10.9,19.7,11.3,19,11.5z M11,19.3l-6-3.4V9.2
	l6,3.4V19.3z"/>
<path class="st0" d="M20.4,6.5h-2.2v2.2H17V6.5h-2.2V5.3H17V3.1h1.1v2.2h2.2 M17.5,0.9c-2.8,0-5,2.2-5,5s2.2,5,5,5s5-2.2,5-5
	S20.3,0.9,17.5,0.9z"/>
</svg>
