<?xml version="1.0" encoding="utf-8"?>
<!-- Generator: Adobe Illustrator 19.2.1, SVG Export Plug-In . SVG Version: 6.00 Build 0)  -->
<svg version="1.1" id="Layer_1" xmlns="http://www.w3.org/2000/svg" xmlns:xlink="http://www.w3.org/1999/xlink" x="0px" y="0px"
	 viewBox="0 0 24 24" style="enable-background:new 0 0 24 24;" xml:space="preserve">
<style type="text/css">
	.st0{fill:none;}
	.st1{fill:#FFFFFF;}
</style>
<g id="Frames-24px">
	<rect class="st0" width="24" height="24"/>
</g>
<g id="Solid">
	<g>
		<path class="st1" d="M20.5,2h-9c-1.1,0-2,0.9-2,2v8c0,1.1,0.9,2,2,2h9c1.1,0,2-0.9,2-2V4C22.5,2.9,21.6,2,20.5,2z M11.5,11l1.9-3
			l1.1,1.8l2.6-4.2l3.4,5.4H11.5z"/>
		<path class="st1" d="M7.5,5h-2v11c0,1.1,0.9,2,2,2h10v-2h-10V5z"/>
		<path class="st1" d="M3.5,9h-2v11c0,1.1,0.9,2,2,2h10v-2h-10V9z"/>
	</g>
</g>
</svg>
