<?xml version="1.0" encoding="utf-8"?>
<!-- Generator: Adobe Illustrator 20.0.0, SVG Export Plug-In . SVG Version: 6.00 Build 0)  -->
<svg version="1.1" id="Layer_1" xmlns="http://www.w3.org/2000/svg" xmlns:xlink="http://www.w3.org/1999/xlink" x="0px" y="0px"
	 viewBox="0 0 24 24" style="enable-background:new 0 0 24 24;" xml:space="preserve">
<style type="text/css">
	.st0{fill:#FCFCFC;}
</style>
<path class="st0" d="M8,3C6.9,3,6,3.9,6,5v4c0,1.1-0.9,2-2,2H3v2h1c1.1,0,2,0.9,2,2v4c0,1.1,0.9,2,2,2h2v-2H8v-5c0-1.1-0.9-2-2-2
	c1.1,0,2-0.9,2-2V5h2V3 M16,3c1.1,0,2,0.9,2,2v4c0,1.1,0.9,2,2,2h1v2h-1c-1.1,0-2,0.9-2,2v4c0,1.1-0.9,2-2,2h-2v-2h2v-5
	c0-1.1,0.9-2,2-2c-1.1,0-2-0.9-2-2V5h-2V3H16z"/>
</svg>
