<?xml version="1.0" encoding="utf-8"?>
<!-- Generator: Adobe Illustrator 20.0.0, SVG Export Plug-In . SVG Version: 6.00 Build 0)  -->
<svg version="1.1" id="Layer_1" xmlns="http://www.w3.org/2000/svg" xmlns:xlink="http://www.w3.org/1999/xlink" x="0px" y="0px"
	 viewBox="0 0 24 24" style="enable-background:new 0 0 24 24;" xml:space="preserve">
<style type="text/css">
	.st0{fill:#F9F9F9;}
</style>
<path class="st0" d="M12.6,2.9c2.7,1.2,5.4,2.5,8.1,3.8C20.8,6.7,21,6.8,21,6.9c0,0.2-0.2,0.2-0.3,0.3c-2.7,1.2-5.4,2.5-8,3.7
	c-0.4,0.2-0.8,0.2-1.2,0C8.7,9.8,6,8.5,3.3,7.2C3.2,7.2,3,7.1,3,6.9c0-0.2,0.2-0.2,0.3-0.3C6,5.4,8.7,4.1,11.4,2.8
	C11.7,2.7,12.3,2.7,12.6,2.9 M12,21.1c-0.2,0-0.3-0.1-0.6-0.2c-2.7-1.2-5.4-2.5-8.1-3.8C3.2,17.1,3,17.1,3,16.9
	c0-0.2,0.2-0.2,0.3-0.3c0.4-0.2,0.9-0.4,1.3-0.6c0.4-0.2,0.9-0.2,1.3,0c1.8,0.8,3.6,1.7,5.4,2.5c0.4,0.2,0.9,0.2,1.3,0
	c1.8-0.8,3.6-1.7,5.3-2.5c0.4-0.2,0.9-0.2,1.3,0c0.5,0.2,0.9,0.4,1.4,0.7c0.1,0,0.1,0.1,0.2,0.1c0.1,0.1,0.1,0.3,0,0.4
	c-0.1,0.1-0.2,0.1-0.3,0.1c-2.6,1.3-5.3,2.5-8,3.7C12.5,21,12.2,21.1,12,21.1 M12,16.2c-0.1,0-0.4-0.1-0.6-0.2
	c-2.7-1.3-5.4-2.5-8-3.8C3.2,12.2,3,12.1,3,11.9c0-0.2,0.2-0.2,0.3-0.3c0.5-0.2,0.9-0.4,1.3-0.6c0.4-0.2,0.9-0.2,1.3,0
	c1.8,0.8,3.6,1.7,5.4,2.5c0.4,0.2,0.8,0.2,1.2,0c1.8-0.9,3.6-1.7,5.4-2.5c0.4-0.2,0.8-0.2,1.2,0c0.5,0.2,0.9,0.4,1.4,0.7
	c0.1,0,0.1,0.1,0.2,0.1c0.1,0.1,0.1,0.3,0,0.4c0,0-0.1,0.1-0.2,0.1c-2.7,1.3-5.4,2.5-8.1,3.8C12.4,16.1,12.1,16.2,12,16.2z"/>
</svg>
