<?xml version="1.0" encoding="utf-8"?>
<!-- Generator: Adobe Illustrator 20.0.0, SVG Export Plug-In . SVG Version: 6.00 Build 0)  -->
<svg version="1.1" id="Layer_1" xmlns="http://www.w3.org/2000/svg" xmlns:xlink="http://www.w3.org/1999/xlink" x="0px" y="0px"
	 viewBox="0 0 24 24" style="enable-background:new 0 0 24 24;" xml:space="preserve">
<style type="text/css">
	.st0{fill:#FCFCFC;}
</style>
<path class="st0" d="M12,19.2c-2.5,0-4.7-1.3-6-3.2c0-2,4-3.1,6-3.1s6,1.1,6,3.1C16.7,17.9,14.5,19.2,12,19.2 M12,5c1.7,0,3,1.3,3,3
	s-1.3,3-3,3S9,9.7,9,8S10.3,5,12,5 M12,2C6.5,2,2,6.5,2,12s4.5,10,10,10s10-4.5,10-10C22,6.5,17.5,2,12,2z"/>
</svg>
