<?xml version="1.0" encoding="utf-8"?>
<!-- Generator: Adobe Illustrator 19.2.1, SVG Export Plug-In . SVG Version: 6.00 Build 0)  -->
<svg version="1.1" id="Layer_1" xmlns="http://www.w3.org/2000/svg" xmlns:xlink="http://www.w3.org/1999/xlink" x="0px" y="0px"
	 viewBox="0 0 18.5 18.5" style="enable-background:new 0 0 18.5 18.5;" xml:space="preserve">
<style type="text/css">
	.st0{display:none;}
	.st1{display:inline;fill:none;}
	.st2{fill:#FCFCFC;}
</style>
<g id="Frames-24px" class="st0">
	<rect x="-0.1" y="-0.1" class="st1" width="18.7" height="18.7"/>
</g>
<g id="Solid">
	<path class="st2" d="M14.3,3H4.2C3.5,3,3,3.5,3,4.2v7.6C3,12.5,3.5,13,4.2,13h0.6v2.5L7.4,13h6.9c0.7,0,1.3-0.6,1.3-1.3V4.2
		C15.6,3.5,15,3,14.3,3z M11.1,5.3c0.4,0,0.8,0.4,0.8,0.8c0,0.4-0.3,0.8-0.8,0.8s-0.8-0.3-0.8-0.8S10.7,5.3,11.1,5.3z M7.4,5.3
		c0.4,0,0.8,0.4,0.8,0.8c0,0.4-0.3,0.8-0.8,0.8c-0.4,0-0.8-0.3-0.8-0.8S6.9,5.3,7.4,5.3z M9.2,10.5c-1.3,0-2.4-0.8-2.9-1.9h5.8
		C11.6,9.8,10.6,10.5,9.2,10.5z"/>
</g>
</svg>
