<?xml version="1.0" encoding="utf-8"?>
<!-- Generator: Adobe Illustrator 20.0.0, SVG Export Plug-In . SVG Version: 6.00 Build 0)  -->
<svg version="1.1" id="Layer_1" xmlns="http://www.w3.org/2000/svg" xmlns:xlink="http://www.w3.org/1999/xlink" x="0px" y="0px"
	 viewBox="0 0 24 24" style="enable-background:new 0 0 24 24;" xml:space="preserve">
<style type="text/css">
	.st0{fill:#EFEFEF;}
</style>
<path class="st0" d="M9,22c-0.6,0-1-0.4-1-1v-3H4c-1.1,0-2-0.9-2-2V4c0-1.1,0.9-2,2-2h16c1.1,0,2,0.9,2,2v12c0,1.1-0.9,2-2,2h-6.1
	l-3.7,3.7C10,21.9,9.8,22,9.5,22l0,0H9 M10,16v3.1l3.1-3.1H20V4H4v12H10 M17,11h-2V9h2V11 M13,11h-2V9h2V11 M9,11H7V9h2V11z"/>
</svg>
