<?xml version="1.0" encoding="utf-8"?>
<!-- Generator: Adobe Illustrator 20.0.0, SVG Export Plug-In . SVG Version: 6.00 Build 0)  -->
<svg version="1.1" id="Layer_1" xmlns="http://www.w3.org/2000/svg" xmlns:xlink="http://www.w3.org/1999/xlink" x="0px" y="0px"
	 viewBox="0 0 24 24" style="enable-background:new 0 0 24 24;" xml:space="preserve">
<style type="text/css">
	.st0{fill:#F7F7F7;}
</style>
<path class="st0" d="M4,4h16c1.1,0,2,0.9,2,2v12c0,1.1-0.9,2-2,2H4c-1.1,0-2-0.9-2-2V6C2,4.9,2.9,4,4,4 M4,6v12h7V6H4 M20,18V6h-1.2
	C19,6.5,19,7.1,19,7.1c-0.1,0.7-0.5,1.4-0.7,1.6l-2.3,2.6l3.3,0l0,1.2l-5.2,0l0-1c0,0,3-3.2,3.2-3.5C17.3,7.7,17.9,6,16.5,6
	c-1.2,0.1-1.1,1.3-1.1,1.3l-1.5,0c0,0,0-0.7,0.4-1.3H13v12h2.6l0-0.9l1,0c0,0,0.9-0.2,0.9-1c0-1-0.8-1-1-1c-0.1,0-1.1,0.1-1.1,0.9
	h-1.5c0,0,0-2.1,2.6-2.1c2.6,0,2.5,2,2.5,2s0,1.2-1.1,1.7l0.5,0.4H20 M8.9,16H7.4v-5.8l-1.8,0.6V9.5l3.1-1.1h0.2V16z"/>
</svg>
