<?xml version="1.0" encoding="utf-8"?>
<!-- Generator: Adobe Illustrator 19.2.1, SVG Export Plug-In . SVG Version: 6.00 Build 0)  -->
<svg version="1.1" id="Layer_1" xmlns="http://www.w3.org/2000/svg" xmlns:xlink="http://www.w3.org/1999/xlink" x="0px" y="0px"
	 viewBox="0 0 24 24" style="enable-background:new 0 0 24 24;" xml:space="preserve">
<style type="text/css">
	.st0{fill:none;}
	.st1{fill:#FCFCFC;}
</style>
<g id="Frames-24px">
	<rect class="st0" width="24" height="24"/>
</g>
<g id="Solid">
	<path class="st1" d="M12,2C6.5,2,2,6.5,2,12c0,5.5,4.5,10,10,10s10-4.5,10-10C22,6.5,17.5,2,12,2z M14,7h2v4h-2V7z M8,7h2v4H8V7z
		 M15,17l-1-1.5L13,17h-2l-1-1.5L9,17H7l2-3h2l1,1.5l1-1.5h2l2,3H15z"/>
</g>
</svg>
