<?xml version="1.0" encoding="utf-8"?>
<!-- Generator: Adobe Illustrator 19.2.1, SVG Export Plug-In . SVG Version: 6.00 Build 0)  -->
<svg version="1.1" id="Layer_1" xmlns="http://www.w3.org/2000/svg" xmlns:xlink="http://www.w3.org/1999/xlink" x="0px" y="0px"
	 viewBox="0 0 24 24" style="enable-background:new 0 0 24 24;" xml:space="preserve">
<style type="text/css">
	.st0{fill:none;}
	.st1{fill:#FFFFFF;}
</style>
<g id="Frames-24px">
	<rect class="st0" width="24" height="24"/>
</g>
<g id="Solid">
	<g>
		<path class="st1" d="M19.9,20.3l-0.2,0c-0.1,0-5.9,0-5.9-2.8v-0.9h3.6c0.5,0,0.9-0.4,0.9-0.9c0-0.5-0.4-0.9-0.9-0.9H6.6
			c-0.5,0-0.9,0.4-0.9,0.9c0,0.5,0.4,0.9,0.9,0.9h3.6v0.9c0,2.7-5.9,2.9-5.9,2.9l-0.2,0c-0.7,0.1-1.2,0.7-1.1,1.4
			c0.1,0.7,0.6,1.2,1.3,1.2h15.3c1.2,0,1.3-0.8,1.3-1.1C21.1,21.1,20.6,20.4,19.9,20.3z"/>
		<path class="st1" d="M5.7,12.1h4.5v1.8h3.6v-1.8h4.5c2,0,3.6-1.6,3.6-3.6s-1.6-3.6-3.6-3.6c-1.1,0-2.1,0.5-2.8,1.3
			c-0.2-1.7-1.7-3.1-3.5-3.1S8.7,4.5,8.5,6.2C7.8,5.4,6.8,4.9,5.7,4.9c-2,0-3.6,1.6-3.6,3.6S3.7,12.1,5.7,12.1z"/>
	</g>
</g>
</svg>
