<?xml version="1.0" encoding="utf-8"?>
<!-- Generator: Adobe Illustrator 20.0.0, SVG Export Plug-In . SVG Version: 6.00 Build 0)  -->
<svg version="1.1" id="Layer_1" xmlns="http://www.w3.org/2000/svg" xmlns:xlink="http://www.w3.org/1999/xlink" x="0px" y="0px"
	 viewBox="0 0 24 24" style="enable-background:new 0 0 24 24;" xml:space="preserve">
<style type="text/css">
	.st0{fill:#F9F9F9;}
</style>
<path class="st0" d="M21,16.5c0,0.4-0.2,0.7-0.5,0.9l-7.9,4.4C12.4,21.9,12.2,22,12,22s-0.4-0.1-0.6-0.2l-7.9-4.4
	C3.2,17.2,3,16.9,3,16.5v-9c0-0.4,0.2-0.7,0.5-0.9l7.9-4.4C11.6,2.1,11.8,2,12,2s0.4,0.1,0.6,0.2l7.9,4.4C20.8,6.8,21,7.1,21,7.5
	V16.5 M12,4.2L6,7.5l6,3.4l6-3.4L12,4.2z"/>
</svg>
