<?xml version="1.0" encoding="utf-8"?>
<!-- Generator: Adobe Illustrator 20.0.0, SVG Export Plug-In . SVG Version: 6.00 Build 0)  -->
<svg version="1.1" id="Layer_1" xmlns="http://www.w3.org/2000/svg" xmlns:xlink="http://www.w3.org/1999/xlink" x="0px" y="0px"
	 viewBox="0 0 24 24" style="enable-background:new 0 0 24 24;" xml:space="preserve">
<style type="text/css">
	.st0{fill:#FFFFFF;}
</style>
<path class="st0" d="M10,4l2,2h8c1.1,0,2,0.9,2,2v10c0,1.1-0.9,2-2,2H4c-1.1,0-2-0.9-2-2V6c0-1.1,0.9-2,2-2H10 M12.5,10.9l2.1,2.1
	l-2.1,2.1l1.4,1.4l2.1-2.1l2.1,2.1l1.4-1.4L17.4,13l2.1-2.1l-1.4-1.4L16,11.6l-2.1-2.1L12.5,10.9z"/>
</svg>
