<?xml version="1.0" encoding="utf-8"?>
<!-- Generator: Adobe Illustrator 19.2.1, SVG Export Plug-In . SVG Version: 6.00 Build 0)  -->
<svg version="1.1" id="Layer_2_1_" xmlns="http://www.w3.org/2000/svg" xmlns:xlink="http://www.w3.org/1999/xlink" x="0px" y="0px"
	 viewBox="0 0 96 96" style="enable-background:new 0 0 96 96;" xml:space="preserve">
<style type="text/css">
	.st0{display:none;fill:#4C4C4C;}
	.st1{fill:#4C4C4C;}
</style>
<path class="st0" d="M82,4.8l-1.3,1.3h-2.3c-0.8,0-1.3,0.6-1.3,1.3v8.4c0,0.8,0.7,1.3,1.3,1.3h11.3c0.8,0,1.3-0.6,1.3-1.3V7.5
	c0-0.8-0.7-1.3-1.3-1.3h-2.3l-1.3-1.3C86.3,4.8,82,4.8,82,4.8z M84.1,15.3c-2,0-3.5-1.5-3.5-3.5s1.5-3.5,3.5-3.5s3.5,1.5,3.5,3.5
	S86.1,15.3,84.1,15.3z"/>
<g id="Solid">
	<g>
		<path class="st1" d="M84,9c-1.5,0-2.8,1.3-2.8,2.8s1.3,2.8,2.8,2.8s2.8-1.3,2.8-2.8S85.5,9,84,9z"/>
		<path class="st1" d="M89.6,6.9h-1.4c-0.5,0-0.9-0.2-1.2-0.6l-0.6-0.9c-0.3-0.4-0.7-0.6-1.2-0.6h-2.7c-0.5,0-0.9,0.2-1.2,0.6
			l-0.6,0.9c-0.3,0.4-0.7,0.6-1.2,0.6h-1.4c-0.8,0-1.4,0.6-1.4,1.4V16c0,0.8,0.6,1.4,1.4,1.4h11.2c0.8,0,1.4-0.6,1.4-1.4V8.3
			C91,7.6,90.4,6.9,89.6,6.9z M84,16c-2.3,0-4.2-1.9-4.2-4.2s1.9-4.2,4.2-4.2s4.2,1.9,4.2,4.2S86.3,16,84,16z"/>
	</g>
</g>
</svg>
