<?xml version="1.0" encoding="utf-8"?>
<!-- Generator: Adobe Illustrator 19.2.1, SVG Export Plug-In . SVG Version: 6.00 Build 0)  -->
<svg version="1.1" id="Layer_1" xmlns="http://www.w3.org/2000/svg" xmlns:xlink="http://www.w3.org/1999/xlink" x="0px" y="0px"
	 viewBox="0 0 96 96" style="enable-background:new 0 0 96 96;" xml:space="preserve">
<style type="text/css">
	.st0{fill:#666666;}
	.st1{display:none;}
	.st2{display:inline;fill:none;}
	.st3{display:inline;fill:#424242;}
	.st4{fill:#4C4C4C;}
</style>
<rect class="st0" width="96" height="96"/>
<g id="Layer_1_1_" class="st1">
	<path class="st2" d="M24,24h48v48H24V24z"/>
	<path class="st3" d="M66,62V34c0-2.2-1.8-4-4-4H34c-2.2,0-4,1.8-4,4v28c0,2.2,1.8,4,4,4h28C64.2,66,66,64.2,66,62z M41,51l5,6l7-9
		l9,12H34L41,51z"/>
</g>
<g id="Layer_2">
</g>
<path class="st4" d="M66,62V34c0-2.2-1.8-4-4-4H34c-2.2,0-4,1.8-4,4v28c0,2.2,1.8,4,4,4h28C64.2,66,66,64.2,66,62z M41,51l5,6l7-9
	l9,12H34L41,51z"/>
</svg>
