<?xml version="1.0" encoding="utf-8"?>
<!-- Generator: Adobe Illustrator 19.2.1, SVG Export Plug-In . SVG Version: 6.00 Build 0)  -->
<svg version="1.1" id="Layer_1" xmlns="http://www.w3.org/2000/svg" xmlns:xlink="http://www.w3.org/1999/xlink" x="0px" y="0px"
	 viewBox="0 0 24 24" style="enable-background:new 0 0 24 24;" xml:space="preserve">
<style type="text/css">
	.st0{fill:none;}
	.st1{fill:#FFFFFF;}
</style>
<g id="Frames-24px">
	<rect class="st0" width="24" height="24"/>
</g>
<g id="Solid">
	<path class="st1" d="M20,2H4C2.9,2,2,2.9,2,4v12c0,1.1,0.9,2,2,2h1v4l4-4h11c1.1,0,2-0.9,2-2V4C22,2.9,21.1,2,20,2z M15,5.8
		c0.7,0,1.2,0.6,1.2,1.2S15.7,8.2,15,8.2S13.8,7.7,13.8,7S14.3,5.8,15,5.8z M9,5.8c0.7,0,1.2,0.6,1.2,1.2S9.7,8.2,9,8.2
		S7.8,7.7,7.8,7S8.3,5.8,9,5.8z M12,14c-2.1,0-3.8-1.2-4.6-3h9.2C15.8,12.8,14.1,14,12,14z"/>
</g>
</svg>
