<?xml version="1.0" encoding="utf-8"?>
<!-- Generator: Adobe Illustrator 20.0.0, SVG Export Plug-In . SVG Version: 6.00 Build 0)  -->
<svg version="1.1" id="Layer_1" xmlns="http://www.w3.org/2000/svg" xmlns:xlink="http://www.w3.org/1999/xlink" x="0px" y="0px"
	 viewBox="0 0 52 52" style="enable-background:new 0 0 52 52;" xml:space="preserve">
<style type="text/css">
	.st0{fill:#EFEFEF;}
</style>
<path class="st0" d="M6,6c-3.3,0-6,2.7-6,6v28c0,2.1,1.1,3.9,2.7,4.9c0.2,0.2,0.5,0.3,0.8,0.4c0.1,0,0.2,0.1,0.2,0.1
	C4.4,45.8,5.1,46,5.9,46h32c3.2,0,6.2-1.9,7.4-4.9v-0.1l6.2-16.6v-0.1c0.6-1.5,0.6-3.2-0.2-4.4c-0.9-1.3-2.5-1.9-4.1-1.9H44
	c0-3.3-2.7-6-6-6H22c0-3.3-2.7-6-6-6H6z M15.2,22h32c0.6,0,0.7,0.2,0.8,0.2c0,0,0.1,0.1-0.1,0.7v0.1V23l-6.2,16.6l-0.1,0.1
	c-0.5,1.1-2.5,2.4-3.7,2.4h-32c-0.6,0-0.7-0.2-0.7-0.2s-0.1-0.1,0.1-0.7v-0.1l6.2-16.6c0,0,0.1,0,0.1-0.1C12.1,23.3,14.1,22,15.2,22
	z"/>
</svg>
