<?xml version="1.0" encoding="utf-8"?>
<!-- Generator: Adobe Illustrator 19.2.1, SVG Export Plug-In . SVG Version: 6.00 Build 0)  -->
<svg version="1.1" id="Layer_1" xmlns="http://www.w3.org/2000/svg" xmlns:xlink="http://www.w3.org/1999/xlink" x="0px" y="0px"
	 viewBox="0 0 24 24" style="enable-background:new 0 0 24 24;" xml:space="preserve">
<style type="text/css">
	.st0{fill:none;}
	.st1{fill:#FFFFFF;}
</style>
<g id="Frames-24px">
	<rect class="st0" width="24" height="24"/>
</g>
<g id="Solid">
	<path class="st1" d="M12,2.5c-5.2,0-9.4,4.2-9.4,9.4s4.2,9.5,9.4,9.5c1.9,0,3.8-0.5,5.3-1.6l-1.5-2.2c-1.1,0.7-2.4,1.2-3.8,1.2
		c-3.7,0-6.8-3.1-6.8-6.8S8.3,5.2,12,5.2s6.8,3.1,6.8,6.8v0.7c0,0.5-0.1,1.5-1,1.5h-0.4c-0.3,0-0.8-0.5-0.8-0.8V12l0,0
		c0-2.5-2.1-4.6-4.6-4.6S7.4,9.5,7.4,12s2.1,4.6,4.6,4.6c1.1,0,2-0.4,2.8-1c0.7,0.8,1.6,1.4,2.6,1.4h0.4c2.2,0,3.7-1.7,3.7-4.2V12
		C21.5,6.8,17.2,2.5,12,2.5z M12,13.9c-1.1,0-1.9-0.8-1.9-1.9s0.8-1.9,1.9-1.9s1.9,0.8,1.9,1.9S13.1,13.9,12,13.9z"/>
</g>
</svg>
