<?xml version="1.0" encoding="utf-8"?>
<!-- Generator: Adobe Illustrator 19.2.1, SVG Export Plug-In . SVG Version: 6.00 Build 0)  -->
<svg version="1.1" id="Layer_1" xmlns="http://www.w3.org/2000/svg" xmlns:xlink="http://www.w3.org/1999/xlink" x="0px" y="0px"
	 viewBox="0 0 171 96" style="enable-background:new 0 0 171 96;" xml:space="preserve">
<style type="text/css">
	.st0{fill:#666666;}
	.st1{display:none;}
	.st2{display:inline;fill:none;}
	.st3{display:inline;fill:#424242;}
	.st4{display:none;fill:#4C4C4C;}
	.st5{fill:#4C4C4C;}
</style>
<rect class="st0" width="171" height="96"/>
<g id="Layer_1_1_" class="st1">
	<path class="st2" d="M61.5,24h48v48h-48V24z"/>
	<path class="st3" d="M103.5,62V34c0-2.2-1.8-4-4-4h-28c-2.2,0-4,1.8-4,4v28c0,2.2,1.8,4,4,4h28C101.7,66,103.5,64.2,103.5,62z
		 M78.5,51l5,6l7-9l9,12h-28L78.5,51z"/>
</g>
<g id="Layer_2">
</g>
<path class="st4" d="M97.5,30v4h-4v-4h-16v4h-4v-4h-4v36h4v-4h4v4h16v-4h4v4h4V30H97.5z M77.5,58h-4v-4h4V58z M77.5,50h-4v-4h4V50z
	 M77.5,42h-4v-4h4V42z M97.5,58h-4v-4h4V58z M97.5,50h-4v-4h4V50z M97.5,42h-4v-4h4V42z"/>
<path class="st5" d="M103.5,62V34c0-2.2-1.8-4-4-4h-28c-2.2,0-4,1.8-4,4v28c0,2.2,1.8,4,4,4h28C101.7,66,103.5,64.2,103.5,62z
	 M78.5,51l5,6l7-9l9,12h-28L78.5,51z"/>
</svg>
