<?xml version="1.0" encoding="utf-8"?>
<!-- Generator: Adobe Illustrator 20.0.0, SVG Export Plug-In . SVG Version: 6.00 Build 0)  -->
<svg version="1.1" id="Layer_1" xmlns="http://www.w3.org/2000/svg" xmlns:xlink="http://www.w3.org/1999/xlink" x="0px" y="0px"
	 viewBox="0 0 24 24" style="enable-background:new 0 0 24 24;" xml:space="preserve">
<style type="text/css">
	.st0{display:none;}
	.st1{display:inline;fill:none;stroke:#FCFCFC;stroke-width:1.5;stroke-miterlimit:10;}
	.st2{display:inline;fill:#FCFCFC;}
	.st3{fill:none;stroke:#FFFFFF;stroke-linecap:round;stroke-linejoin:round;stroke-miterlimit:10;}
</style>
<g class="st0">
	<path class="st1" d="M18.3,3.9H5.7c-1,0-1.8,0.8-1.8,1.8v12.6c0,1,0.8,1.8,1.8,1.8h12.6c1,0,1.8-0.8,1.8-1.8V5.7
		C20.1,4.7,19.3,3.9,18.3,3.9z"/>
	<polygon class="st2" points="16.5,12.9 12.9,12.9 12.9,16.5 11.1,16.5 11.1,12.9 7.5,12.9 7.5,11.1 11.1,11.1 11.1,7.5 12.9,7.5 
		12.9,11.1 16.5,11.1 	"/>
</g>
<polygon class="st3" points="14.6,12 9.4,17.1 9.4,6.9 "/>
</svg>
